# xmcd
# 
# Track frame offsets:
#     150
#     11371
#     19675
#     33243
#     43484
#     52792
#     61886
#     71142
#     81649
#     89201
#     99482
#     109663
#     119666
#     128466
#     139628
# 
# Disc length: 2013
# 
# Revision: 1
# Processed by: cddbd v1.5.2PL0 Copyright (c) Steve Scherf et al.
# Submitted via: fre:ac v1.0.17
# 
DISCID=cd07db0f
DTITLE=The Head Cat - Fool's Paradise
DYEAR=2006
DGENRE=Rock and Roll
TTITLE0=Fool's Paradise
TTITLE1=Tell Me How
TTITLE2=You Got Me Dizzy
TTITLE3=Not Fade Away
TTITLE4=Cut Across Shortly
TTITLE5=Lawdy Miss Clawdy
TTITLE6=Take Your Time
TTITLE7=Well...All Right
TTITLE8=Trying To Get To You
TTITLE9=Learning The Game
TTITLE10=Peggy Sue Got Married
TTITLE11=Crying, Waiting, Hoping
TTITLE12=Love's Made A Fool Of You
TTITLE13=Big River
TTITLE14=Matchbox
EXTD=
EXTT0=
EXTT1=
EXTT2=
EXTT3=
EXTT4=
EXTT5=
EXTT6=
EXTT7=
EXTT8=
EXTT9=
EXTT10=
EXTT11=
EXTT12=
EXTT13=
EXTT14=
PLAYORDER=
